
<svg id="Layer_1" data-name="Layer 1" xmlns="http://www.w3.org/2000/svg" viewBox="0 0 122.88 62.62"><defs><style>.cls-1{fill-rule:evenodd;}</style></defs><title>sold-out-black</title><path class="cls-1" d="M32.75.35C59.52.32,87.13-.37,113.8.27a9.18,9.18,0,0,1,9.08,9.32c-.12,14.53-.36,29.08-.53,43.62v.31h0v0a8.94,8.94,0,0,1-2.8,6.48,9.4,9.4,0,0,1-6.16,2.58l-.42,0h0l-80.15-.68a2.89,2.89,0,0,1-2-.71L.84,35a2.9,2.9,0,0,1,0-4.1L30.71,1.19a2.87,2.87,0,0,1,2-.84ZM57.13,16.19c-2.39-.26-4.13-.39-5.21-.39a9.8,9.8,0,0,0-1.9.1c-.4.13-.33,1.14,0,1.32,1.08.55,5.85,1.25,6.42,1.69a3,3,0,0,1,1.1,1.55,9.47,9.47,0,0,1,.26,2.46q0,3.2-1.67,4.56a7.85,7.85,0,0,1-5.06,1.37,27.41,27.41,0,0,1-3.42-.23,27.2,27.2,0,0,1-2.76-.47l-1-.23.26-4.56a45.72,45.72,0,0,0,6.38.57c1.91,0,2.06-1.39-.63-1.81-2.38-.37-4-.45-4.85-1.25a5.2,5.2,0,0,1-1.28-3.93q0-3.48,1.65-4.77a8.23,8.23,0,0,1,5.09-1.29,33.55,33.55,0,0,1,5.67.49l1.06.18-.15,4.64ZM23,26.78a6.47,6.47,0,0,1,4.68-2.05,6.65,6.65,0,0,1,4.86,1.83A6.72,6.72,0,0,1,32.7,36,6.35,6.35,0,0,1,28,38.15a6.44,6.44,0,0,1-4.8-1.85,6.54,6.54,0,0,1-2.08-4.76A6.46,6.46,0,0,1,23,26.78Zm33.45,19.4a2,2,0,0,0,3.5,0,12.65,12.65,0,0,0,0-6.35,2.07,2.07,0,0,0-3.51,0,11.89,11.89,0,0,0,0,6.32ZM66.31,43c0,3.15-.65,5.43-1.93,6.85S61,52,58.21,52s-4.88-.71-6.18-2.14-1.94-3.7-1.94-6.84.65-5.42,1.93-6.83,3.35-2.13,6.18-2.13,4.9.71,6.18,2.13,1.93,3.7,1.93,6.84Zm8.08-8.64V45.7c0,1.9,3.18,1.93,3.18,0V34.38h5.9v11c0,2.43-.6,4.16-1.8,5.14S78.57,52,76,52s-4.48-.48-5.68-1.44-1.8-2.66-1.8-5.08V34.38Zm11.09,4.88V34.38H99.19v4.88h-3.8v12.4h-5.9V39.26ZM65.74,19.85A8.57,8.57,0,0,0,66.16,23a1.71,1.71,0,0,0,1.75,1,1.67,1.67,0,0,0,1.74-1,8.82,8.82,0,0,0,.41-3.18,9.05,9.05,0,0,0-.39-3.17,1.68,1.68,0,0,0-1.75-.94,1.72,1.72,0,0,0-1.76,1,8.61,8.61,0,0,0-.42,3.16Zm10.27,0c0,3.15-.65,5.43-1.93,6.85s-3.35,2.12-6.17,2.12-4.88-.71-6.18-2.14-1.94-3.7-1.94-6.84.64-5.42,1.93-6.83,3.35-2.13,6.18-2.13,4.89.71,6.18,2.13S76,16.71,76,19.85Zm13.9,8.64H78.46V11.21h5.9V23.62h5.55v4.87Zm9.72,0H92.18V11.21h7.2c2.93,0,5,.68,6.33,2s1.93,3.48,1.93,6.43-.62,5.16-1.85,6.62-3.3,2.21-6.16,2.21ZM101.69,20a6.79,6.79,0,0,0-.47-3.1c-.55-.91-2.18-.77-3.14-.77v7.53c1,0,2.27.12,3-.67.41-.44.61-1.45.61-3Z"/></svg>